<svg width="22" height="22" viewBox="0 0 22 22" fill="none" xmlns="http://www.w3.org/2000/svg">
<path d="M0 5.5C0 2.46243 2.46243 0 5.5 0H16.5C19.5376 0 22 2.46243 22 5.5V16.5C22 19.5376 19.5376 22 16.5 22H5.5C2.46243 22 0 19.5376 0 16.5V5.5Z" fill="url(#paint0_linear_307_813)"/>
<path d="M15.25 6.60772V6.23272H14.5V6.60772H15.25ZM14.5 9.60772V9.98272H15.25V9.60772H14.5ZM16.375 8.48272H16.75V7.73272H16.375V8.48272ZM13.375 7.73272H13V8.48272H13.375V7.73272ZM12.5 13.1077C12.5 14.029 12.2183 14.6767 11.8038 15.0932C11.3878 15.5111 10.8019 15.7327 10.125 15.7327V16.4827C10.9668 16.4827 11.756 16.2043 12.3354 15.6223C12.9162 15.0387 13.25 14.1864 13.25 13.1077H12.5ZM10.125 15.7327C9.44809 15.7327 8.8622 15.5111 8.44624 15.0932C8.03174 14.6767 7.75 14.029 7.75 13.1077H7C7 14.1864 7.33387 15.0387 7.91467 15.6223C8.49402 16.2043 9.28313 16.4827 10.125 16.4827V15.7327ZM7.75 13.1077C7.75 12.7513 7.85412 12.2518 8.03851 11.6601C8.22061 11.0758 8.47178 10.4299 8.74568 9.79129C9.29331 8.51439 9.92215 7.28859 10.2432 6.68086L9.58001 6.33055C9.255 6.94583 8.61555 8.1919 8.0564 9.49568C7.7769 10.1474 7.51504 10.8191 7.32247 11.437C7.1322 12.0475 7 12.635 7 13.1077H7.75ZM10.0068 6.68086C10.3278 7.28859 10.9567 8.51439 11.5043 9.79129C11.7782 10.4299 12.0294 11.0758 12.2115 11.6601C12.3959 12.2518 12.5 12.7513 12.5 13.1077H13.25C13.25 12.635 13.1178 12.0475 12.9275 11.437C12.7349 10.8191 12.4731 10.1474 12.1936 9.49568C11.6345 8.1919 10.995 6.94583 10.67 6.33055L10.0068 6.68086ZM10.2432 6.68086C10.1945 6.77305 10.0555 6.77305 10.0068 6.68086L10.67 6.33055C10.4372 5.88982 9.81282 5.88982 9.58001 6.33055L10.2432 6.68086ZM14.5 6.60772V8.10772H15.25V6.60772H14.5ZM14.5 8.10772V9.60772H15.25V8.10772H14.5ZM16.375 7.73272H14.875V8.48272H16.375V7.73272ZM14.875 7.73272H13.375V8.48272H14.875V7.73272Z" fill="white"/>
<defs>
<linearGradient id="paint0_linear_307_813" x1="11" y1="0" x2="11" y2="22" gradientUnits="userSpaceOnUse">
<stop stop-color="#FB5959"/>
<stop offset="0.878125" stop-color="#FF855E"/>
</linearGradient>
</defs>
</svg>
