<svg width="22" height="22" viewBox="0 0 22 22" fill="none" xmlns="http://www.w3.org/2000/svg">
<path d="M0 5.5C0 2.46243 2.46243 0 5.5 0H16.5C19.5376 0 22 2.46243 22 5.5V16.5C22 19.5376 19.5376 22 16.5 22H5.5C2.46243 22 0 19.5376 0 16.5V5.5Z" fill="url(#paint0_linear_307_809)"/>
<path d="M8.10649 7.64311C8.39899 7.4703 8.84429 6.9103 9.07622 6.07674C9.22317 5.54867 9.69619 5.16675 10.2444 5.16675H11.7191C12.2597 5.16675 12.7282 5.53817 12.8813 6.05663C13.1345 6.91447 13.6469 7.50008 13.9167 7.65616M8.10649 7.64311C8.09866 7.64774 8.09094 7.65209 8.08333 7.65616C7.73462 7.85788 7.5 8.23492 7.5 8.66675V13.3334C7.5 13.7653 7.73462 14.1423 8.08333 14.344M8.10649 7.64311C8.27275 7.55193 8.46366 7.50008 8.66667 7.50008H13.3333C13.5458 7.50008 13.7451 7.55689 13.9167 7.65616M13.9167 7.65616C14.2654 7.85788 14.5 8.23492 14.5 8.66675V9.83797M8.08333 14.344C8.35315 14.5001 8.83808 15.0675 9.07622 15.9234C9.22317 16.4515 9.69619 16.8334 10.2444 16.8334H11.7191M8.08333 14.344C8.25493 14.4433 8.45416 14.5001 8.66667 14.5001H9.81696M12.3225 14.5759L13.2846 12.7119L14.439 15.6943L15.6344 13.5438L16.2282 14.5759H16.9834" stroke="white" stroke-width="0.75" stroke-linecap="round" stroke-linejoin="round"/>
<defs>
<linearGradient id="paint0_linear_307_809" x1="11" y1="4.4" x2="11" y2="34.925" gradientUnits="userSpaceOnUse">
<stop offset="0.4375" stop-color="#C1A5FC"/>
<stop offset="0.9999" stop-color="#C1A5FC" stop-opacity="0"/>
<stop offset="1" stop-color="#9747FF"/>
</linearGradient>
</defs>
</svg>
